<svg xmlns="http://www.w3.org/2000/svg" viewBox="0 0 1280 320" width="1280" height="320" font-family="'JetBrains Mono','Fira Code',ui-monospace,SFMono-Regular,Menlo,Consolas,monospace">
  <defs>
    <pattern id="g" width="34" height="34" patternUnits="userSpaceOnUse">
      <path d="M34 0H0V34" fill="none" stroke="#161d26" stroke-width="1"/>
    </pattern>
    <linearGradient id="bg" x1="0" y1="0" x2="1" y2="1">
      <stop offset="0" stop-color="#0d1117"/>
      <stop offset="1" stop-color="#090d13"/>
    </linearGradient>
  </defs>
  <rect width="1280" height="320" fill="url(#bg)"/>
  <rect width="1280" height="320" fill="url(#g)" opacity="0.6"/>
  <rect x="1" y="1" width="1278" height="318" fill="none" stroke="#21262d" stroke-width="2"/>
  <rect x="40" y="118" width="4" height="120" fill="#d4a017"/>

  <text x="64" y="58" fill="#586273" font-size="15">labontese@infra:~$ whoami</text>
  <text x="62" y="140" fill="#F7F7F7" font-size="50" font-weight="700">DANIEL GUSTAFSSON</text>
  <text x="64" y="180" fill="#d4a017" font-size="24" font-weight="600">Infrastructure Operator</text>
  <text x="64" y="213" fill="#9aa7b3" font-size="18">Hardware at heart, developer by quirk.</text>
  <text x="64" y="241" fill="#6e7b8a" font-size="15.5">Keeping systems running &#183; making ops smart.</text>
  <text x="64" y="288" fill="#7d8896" font-size="14">Linux &#183; Docker &#183; Proxmox &#183; Traefik &#183; pfSense &#183; K3s &#183; 10GbE</text>

  <g stroke="#3b4754" stroke-width="2" fill="none">
    <path d="M723 160 H770"/>
    <path d="M882 160 H912"/>
  </g>
  <g stroke="#d4a017" stroke-width="2" fill="none">
    <path d="M1044 152 L1092 114"/>
    <path d="M1044 168 L1092 206"/>
  </g>
  <text x="1056" y="126" fill="#d4a017" font-size="10.5">10GbE</text>
  <text x="1056" y="201" fill="#d4a017" font-size="10.5">10GbE</text>

  <circle cx="700" cy="160" r="23" fill="#161b22" stroke="#3b4754" stroke-width="1.6"/>
  <text x="700" y="164" text-anchor="middle" fill="#9aa7b3" font-size="12">WAN</text>

  <rect x="770" y="139" width="112" height="42" rx="8" fill="#161b22" stroke="#da3633" stroke-width="1.6"/>
  <text x="826" y="157" text-anchor="middle" fill="#F7F7F7" font-size="15" font-weight="600">pfSense</text>
  <text x="826" y="172" text-anchor="middle" fill="#8b98a5" font-size="10.5">Dell R240</text>

  <rect x="912" y="139" width="132" height="42" rx="8" fill="#161b22" stroke="#d4a017" stroke-width="1.6"/>
  <text x="978" y="157" text-anchor="middle" fill="#F7F7F7" font-size="15" font-weight="600">Switch</text>
  <text x="978" y="172" text-anchor="middle" fill="#8b98a5" font-size="10.5">Juniper EX4200</text>

  <rect x="1092" y="88" width="150" height="46" rx="8" fill="#161b22" stroke="#007ACC" stroke-width="1.6"/>
  <text x="1167" y="108" text-anchor="middle" fill="#F7F7F7" font-size="15" font-weight="600">Compute</text>
  <text x="1167" y="123" text-anchor="middle" fill="#8b98a5" font-size="10.5">R730XD &#183; K3s</text>

  <rect x="1092" y="186" width="150" height="46" rx="8" fill="#161b22" stroke="#2ea043" stroke-width="1.6"/>
  <text x="1167" y="206" text-anchor="middle" fill="#F7F7F7" font-size="15" font-weight="600">Storage</text>
  <text x="1167" y="221" text-anchor="middle" fill="#8b98a5" font-size="10.5">TrueNAS &#183; PBS</text>
</svg>
